DBRep_DrawableShape

CASCADE Topology V1, (c) Matra-Datavision
Locations 0
Curve2ds 0
Curves 12
8 0 1
1 0 0.5 0 0 -1 0 
1 0 0.5 0 0 0 1 
8 0 1
1 0 -0.5 1 0 1 0 
1 0 -0.5 0 0 0 1 
8 0 1
1 1 0.5 0 0 -1 0 
1 1 0.5 0 -1 0 0 
1 1 -0.5 0 -1 0 0 
1 0 0.5 1 1 0 0 
8 0 1
1 1 -0.5 1 0 1 0 
1 0 -0.5 1 1 0 0 
1 1 0.5 1 0 0 -1 
1 1 -0.5 1 0 0 -1 
Polygon3D 0
PolygonOnTriangulations 0
Surfaces 6
1 0 0 0 1 0 0 0 0 1 0 -1 0 
1 1 0 0 0 0 1 -1 0 0 0 -1 0 
1 0 0 1 0 0 -1 1 0 0 0 -1 0 
1 0.5 0.5 0.5 0 1 0 0 0 1 1 0 0 
1 1 0 1 -1 -0 -0 0 0 -1 0 -1 0 
1 0.5 -0.5 0.5 0 1 0 0 0 1 1 0 0 
Triangulations 0

TShapes 34
Ve
1e-07
0 0.5 0
0 0

0101101
*
Ve
1e-07
0 -0.5 0
0 0

0101101
*
Ed
 1e-07 1 1 0
1  1 0 0 1
0

0101000
+34 0 -33 0 *
Ve
1e-07
0 0.5 1
0 0

0101101
*
Ed
 1e-07 1 1 0
1  2 0 0 1
0

0101000
+34 0 -31 0 *
Ve
1e-07
0 -0.5 1
0 0

0101101
*
Ed
 1e-07 1 1 0
1  3 0 0 1
0

0101000
+29 0 -31 0 *
Ed
 1e-07 1 1 0
1  4 0 0 1
0

0101000
+33 0 -29 0 *
Wi

0101100
-32 0 +30 0 -28 0 -27 0 *
Fa
0  1e-07 1 0

0111000
+26 0 *
Ve
1e-07
1 0.5 0
0 0

0101101
*
Ve
1e-07
1 -0.5 0
0 0

0101101
*
Ed
 1e-07 1 1 0
1  5 0 0 1
0

0101000
+24 0 -23 0 *
Ed
 1e-07 1 1 0
1  6 0 0 1
0

0101000
+24 0 -34 0 *
Ed
 1e-07 1 1 0
1  7 0 0 1
0

0101000
+23 0 -33 0 *
Wi

0101100
-22 0 +21 0 +32 0 -20 0 *
Fa
0  1e-07 2 0

0111000
+19 0 *
Ve
1e-07
1 0.5 1
0 0

0101101
*
Ed
 1e-07 1 1 0
1  8 0 0 1
0

0101000
+31 0 -17 0 *
Ve
1e-07
1 -0.5 1
0 0

0101101
*
Ed
 1e-07 1 1 0
1  9 0 0 1
0

0101000
+15 0 -17 0 *
Ed
 1e-07 1 1 0
1  10 0 0 1
0

0101000
+29 0 -15 0 *
Wi

0101100
+16 0 -14 0 -13 0 +28 0 *
Fa
0  1e-07 3 0

0111000
+12 0 *
Ed
 1e-07 1 1 0
1  11 0 0 1
0

0101000
+17 0 -24 0 *
Wi

0101100
+30 0 +16 0 +10 0 +21 0 *
Fa
0  1e-07 4 0

0101000
+9 0 *
Ed
 1e-07 1 1 0
1  12 0 0 1
0

0101000
+15 0 -23 0 *
Wi

0101100
+10 0 +22 0 -7 0 +14 0 *
Fa
0  1e-07 5 0

0111000
+6 0 *
Wi

0101100
+27 0 +13 0 +7 0 +20 0 *
Fa
0  1e-07 6 0

0101000
+4 0 *
Sh

0101100
-25 0 -18 0 -11 0 +8 0 -5 0 -3 0 *
So

0100000
+2 0 *

+1 0 