DBRep_DrawableShape

CASCADE Topology V1, (c) Matra-Datavision
Locations 0
Curve2ds 56
1 0 0 0 1 
8 0 10
1 0 0 0 1 
1 0 0 1 0 
1 0 10 1 0 
8 0 3.1415926535897931
1 0 10 1 0 
1 3.1415926535897931 0 0 1 
8 0 10
1 3.1415926535897931 0 0 1 
1 0 0 1 0 
8 0 3.1415926535897931
1 0 0 1 0 
8 10 60
1 0 -10 0 1 
1 0 50 1 0 
2 0 0 1 0 -0 1 190
1 0 60 1 0 
8 10 60
1 3.1415926535897931 -10 0 1 
1 0 0 1 0 
1 0 560 1 0 
8 560 570
1 0 -560 0 1 
1 0 0 1 0 
1 0 570 1 0 
8 0 3.1415926535897931
1 0 10 1 0 
8 560 570
1 3.1415926535897931 -560 0 1 
8 570 610
1 0 -570 0 1 
1 0 610 1 0 
8 0 3.1415926535897931
1 0 40 1 0 
8 570 610
1 3.1415926535897931 -570 0 1 
1 0 0 1 0 
1 0 610 1 0 
1 0 0 0 1 
1 3.1415926535897931 0 0 1 
1 -190 2.326828918379971e-14 1 -6.123233995736766e-17 
1 -25 -285 0 1 
1 0 500 1 0 
2 0 0 1 0 -0 1 170
2 0 0 1 0 -0 1 170
1 0 0 1 0 
2 0 0 1 0 -0 1 100
2 0 0 1 0 -0 1 100
1 170 0 -1 0 
1 -250 35 0 -1 
1 170 0 -1 0 
1 -170 2.0818995585505004e-14 1 -1.2246467991473532e-16 
1 -250 35 0 -1 
1 -170 2.0818995585505004e-14 1 -1.2246467991473532e-16 
1 25 95 0 -1 
1 0 0 1 0 
1 0 500 1 0 
1 250 -35 0 1 
1 250 -35 0 1 
1 0 0 0 1 
1 250 35 -1 0 
1 3.1415926535897931 0 0 1 
1 250 35 -1 0 
1 0 0 0 1 
1 -250 -35 1 0 
1 3.1415926535897931 0 0 1 
1 -250 -35 1 0 
Curves 34
1 190 0 0 0 0 1 
2 0 0 10 0 0 1 1 0 0 0 1 0 190
1 -190 2.326828918379971e-14 0 0 0 1 
2 0 0 0 0 0 1 1 0 0 0 1 0 190
2 0 0 60 0 0 1 1 0 0 0 1 0 190
2 0 0 560 0 0 1 1 0 0 0 1 0 190
2 0 0 570 0 0 1 1 0 0 0 1 0 190
2 0 0 610 0 0 1 1 0 0 0 1 0 190
2 0 0 610 0 0 1 1 0 0 0 1 0 200
1 190 0 610 1 0 0 
1 -190 2.326828918379971e-14 610 -1 1.2246467991473532e-16 0 
2 0 0 0 0 0 1 1 0 0 0 1 0 200
1 200 0 610 0 0 -1 
1 -200 2.4492935982947064e-14 610 0 0 -1 
1 200 0 0 -1 0 0 
1 -200 2.4492935982947064e-14 0 1 -1.2246467991473532e-16 0 
8 0 380
1 -190 2.326828918379971e-14 610 1 -6.123233995736766e-17 0 
8 0 380
1 190 0 570 -1 6.123233995736766e-17 0 
8 0 380
1 -190 2.326828918379971e-14 60 1 -6.123233995736766e-17 0 
2 0 0 60 0 0 1 1 0 0 0 1 0 170
2 0 0 60 0 0 1 1 0 0 0 1 0 100
1 170 0 60 -1 0 0 
1 -170 2.0818995585505004e-14 60 1 -1.2246467991473532e-16 0 
8 0 380
1 190 0 10 -1 6.123233995736766e-17 0 
8 0 380
1 190 0 0 -1 6.123233995736766e-17 0 
8 0 380
1 190 0 560 -1 6.123233995736766e-17 0 
2 0 0 560 0 0 1 1 0 0 0 1 0 170
2 0 0 560 0 0 1 1 0 0 0 1 0 100
1 100 0 560 1 0 0 
1 -100 1.2246467991473532e-14 560 -1 1.2246467991473532e-16 0 
1 170 0 560 0 0 -1 
1 -170 2.0818995585505004e-14 560 0 0 -1 
1 100 0 60 0 0 1 
1 -100 1.2246467991473532e-14 60 0 0 1 
Polygon3D 0
PolygonOnTriangulations 0
Surfaces 26
2 0 0 0 0 0 1 1 0 0 0 1 0 190
2 0 0 0 0 0 1 1 0 0 0 1 0 190
2 0 0 10 0 0 1 1 0 0 0 1 0 190
1 0 0 60 0 0 1 1 0 0 0 1 0 
2 0 0 560 0 0 1 1 0 0 0 1 0 190
2 0 0 570 0 0 1 1 0 0 0 1 0 190
1 0 0 610 0 0 1 -1 0 0 0 1 0 
2 0 0 610 -0 -0 -1 1 0 0 0 1 0 200
1 0 0 0 0 0 1 1 0 0 0 1 0 
1 195 0 305 0 1 0 0 0 1 1 0 0 
1 -195 2.3880612583373389e-14 305 -1.2246467991473532e-16 -1 0 0 0 1 -1 1.2246467991473532e-16 0 
1 0 0 610 0 0 1 1 0 0 0 1 0 
1 0 0 570 0 0 1 -1 0 0 0 1 0 
1 95 0 590 -0 -1 -0 0 0 -1 1 0 0 
1 95 0 35 -0 -1 -0 0 0 -1 1 0 0 
2 0 0 560 -0 -0 -1 1 0 0 0 1 0 170
1 0 0 60 0 0 1 1 0 0 0 1 0 
2 0 0 60 0 0 1 1 0 0 0 1 0 100
1 135 0 310 0 1 0 0 0 1 1 0 0 
1 -135 1.6532731788489267e-14 310 -1.2246467991473532e-16 -1 0 0 0 1 -1 1.2246467991473532e-16 0 
1 0 0 10 0 0 1 -1 0 0 0 1 0 
1 0 0 0 0 0 1 -1 0 0 0 1 0 
1 95 0 5 -0 -1 -0 0 0 -1 1 0 0 
1 0 0 560 0 0 1 -1 0 0 0 1 0 
1 0 0 560 0 0 1 -1 0 0 0 1 0 
1 95 0 565 -0 -1 -0 0 0 -1 1 0 0 
Triangulations 0

TShapes 140
Ve
1.00000028421709e-07
190 0 0
0 0

0101101
*
Ve
1.00000028421709e-07
190 0 10
0 0

0101101
*
Ed
 1e-07 1 1 0
1  1 0 0 10
2  1 1 0 0 10
2  2 2 0 0 10
0

0101000
+140 0 -139 0 *
Ve
1.00000028421709e-07
-190 2.32682891837997e-14 10
0 0

0101101
*
Ed
 1.00000028421709e-07 1 1 0
1  2 0 0 3.14159265358979
2  3 3 0 0 3.14159265358979
2  4 1 0 0 3.14159265358979
2  5 2 0 0 3.14159265358979
0

0101000
+139 0 -137 0 *
Ve
1.00000028421709e-07
-190 2.32682891837997e-14 0
0 0

0101101
*
Ed
 1e-07 1 1 0
1  3 0 0 10
2  6 1 0 0 10
2  7 2 0 0 10
0

0101000
+135 0 -137 0 *
Ed
 1.00000028421709e-07 1 1 0
1  4 0 0 3.14159265358979
2  8 1 0 0 3.14159265358979
2  9 2 0 0 3.14159265358979
0

0101000
+140 0 -135 0 *
Wi

0101100
-138 0 -136 0 +134 0 +133 0 *
Fa
0  1e-07 1 0

0101000
+132 0 *
Ve
1.00000028421709e-07
190 0 60
0 0

0101101
*
Ed
 1e-07 1 1 0
1  1 0 10 60
2  1 1 0 10 60
2  10 3 0 10 60
0

0101000
+139 0 -130 0 *
Ve
1.00000028421709e-07
-190 2.32682891837997e-14 60
0 0

0101101
*
Ed
 1.00000028421709e-07 1 1 0
1  5 0 0 3.14159265358979
2  11 3 0 0 3.14159265358979
2  12 4 0 0 3.14159265358979
2  13 1 0 0 3.14159265358979
0

0101000
+130 0 -128 0 *
Ed
 1e-07 1 1 0
1  3 0 10 60
2  6 1 0 10 60
2  14 3 0 10 60
0

0101000
+137 0 -128 0 *
Wi

0101100
-129 0 -127 0 +126 0 +136 0 *
Fa
0  1e-07 1 0

0101000
+125 0 *
Ve
1.00000028421709e-07
190 0 560
0 0

0101101
*
Ed
 1e-07 1 1 0
1  1 0 60 560
2  1 1 0 60 560
0

0101000
+130 0 -123 0 *
Ve
1.00000028421709e-07
-190 2.32682891837997e-14 560
0 0

0101101
*
Ed
 1.00000028421709e-07 1 1 0
1  6 0 0 3.14159265358979
2  15 5 0 0 3.14159265358979
2  16 1 0 0 3.14159265358979
0

0101000
+123 0 -121 0 *
Ed
 1e-07 1 1 0
1  3 0 60 560
2  6 1 0 60 560
0

0101000
+128 0 -121 0 *
Wi

0101100
-122 0 -120 0 +119 0 +127 0 *
Fa
0  1e-07 1 0

0101000
+118 0 *
Ve
1.00000028421709e-07
190 0 570
0 0

0101101
*
Ed
 1e-07 1 1 0
1  1 0 560 570
2  1 1 0 560 570
2  17 5 0 560 570
0

0101000
+123 0 -116 0 *
Ve
1.00000028421709e-07
-190 2.32682891837997e-14 570
0 0

0101101
*
Ed
 1.00000028421709e-07 1 1 0
1  7 0 0 3.14159265358979
2  18 6 0 0 3.14159265358979
2  19 1 0 0 3.14159265358979
2  20 5 0 0 3.14159265358979
0

0101000
+116 0 -114 0 *
Ed
 1e-07 1 1 0
1  3 0 560 570
2  6 1 0 560 570
2  21 5 0 560 570
0

0101000
+121 0 -114 0 *
Wi

0101100
-115 0 -113 0 +112 0 +120 0 *
Fa
0  1e-07 1 0

0101000
+111 0 *
Ve
1.00000028421709e-07
190 0 610
0 0

0101101
*
Ed
 1e-07 1 1 0
1  1 0 570 610
2  1 1 0 570 610
2  22 6 0 570 610
0

0101000
+116 0 -109 0 *
Ve
1.00000028421709e-07
-190 2.32682891837997e-14 610
0 0

0101101
*
Ed
 1.00000028421709e-07 1 1 0
1  8 0 0 3.14159265358979
2  23 1 0 0 3.14159265358979
2  24 6 0 0 3.14159265358979
0

0101000
+109 0 -107 0 *
Ed
 1e-07 1 1 0
1  3 0 570 610
2  6 1 0 570 610
2  25 6 0 570 610
0

0101000
+114 0 -107 0 *
Wi

0101100
-108 0 -106 0 +105 0 +113 0 *
Fa
0  1e-07 1 0

0101000
+104 0 *
Ve
1e-07
200 0 610
0 0

0101101
*
Ve
1e-07
-200 2.44929359829471e-14 610
0 0

0101101
*
Ed
 1e-07 1 1 0
1  9 0 0 3.14159265358979
2  26 8 0 0 3.14159265358979
0

0101000
+102 0 -101 0 *
Ed
 1e-07 1 1 0
1  10 0 0 10
0

0101000
+109 0 -102 0 *
Ed
 1e-07 1 1 0
1  11 0 0 10
0

0101000
+107 0 -101 0 *
Wi

0101100
+106 0 -100 0 -99 0 +98 0 *
Fa
0  1e-07 7 0

0101000
+97 0 *
Ve
1e-07
200 0 0
0 0

0101101
*
Ve
1e-07
-200 2.44929359829471e-14 0
0 0

0101101
*
Ed
 1e-07 1 1 0
1  12 0 0 3.14159265358979
2  27 8 0 0 3.14159265358979
0

0101000
+95 0 -94 0 *
Ed
 1e-07 1 1 0
1  13 0 0 610
2  28 8 0 0 610
0

0101000
+102 0 -95 0 *
Ed
 1e-07 1 1 0
1  14 0 0 610
2  29 8 0 0 610
0

0101000
+101 0 -94 0 *
Wi

0101100
+100 0 -93 0 -92 0 +91 0 *
Fa
0  1e-07 8 0

0101000
+90 0 *
Ed
 1e-07 1 1 0
1  15 0 0 10
0

0101000
+95 0 -140 0 *
Ed
 1e-07 1 1 0
1  16 0 0 10
0

0101000
+94 0 -135 0 *
Wi

0101100
+93 0 -133 0 -88 0 +87 0 *
Fa
0  1e-07 9 0

0101000
+86 0 *
Wi

0101100
+138 0 +129 0 +122 0 +115 0 +108 0 +99 0 +92 0 +88 0 *
Fa
0  1e-07 10 0

0101000
+84 0 *
Wi

0101100
+134 0 +126 0 +119 0 +112 0 +105 0 +98 0 +91 0 +87 0 *
Fa
0  1e-07 11 0

0101000
+82 0 *
Sh

0101100
+131 0 +124 0 +117 0 +110 0 +103 0 +96 0 +89 0 +85 0 +83 0 -81 0 
*
So

0100000
-80 0 *
Ed
 1e-07 1 1 0
1  17 0 0 380
0

0101000
+107 0 -109 0 *
Wi

0101100
+106 0 +78 0 *
Fa
0  1e-07 12 0

0101000
+77 0 *
Ed
 1.00000028421709e-07 1 1 0
1  18 0 0 380
0

0101000
+116 0 -114 0 *
Wi

0101100
-113 0 +75 0 *
Fa
0  1e-07 13 0

0101000
+74 0 *
Wi

0101100
+108 0 -78 0 -105 0 -75 0 *
Fa
0  1e-07 14 0

0101000
+72 0 *
Sh

0101100
+103 0 +76 0 +73 0 +71 0 *
So

0100000
+70 0 *
Ve
1.00000028823607e-07
170 0 60
0 0

0101101
*
Ed
 1e-07 1 1 0
1  19 0 360 380
2  30 4 0 360 380
2  31 15 0 360 380
0

0101000
+68 0 -130 0 *
Ve
1.00000005153722e-07
-170 2.0818995585505e-14 60
0 0

0101101
*
Ed
 1e-07 1 1 0
1  20 0 0 3.14159265358979
2  32 16 0 0 3.14159265358979
2  33 17 0 0 3.14159265358979
2  34 4 0 0 3.14159265358979
0

0101000
+68 0 -66 0 *
Ed
 1e-07 1 1 0
1  19 0 0 20
2  30 4 0 0 20
2  31 15 0 0 20
0

0101000
+128 0 -66 0 *
Wi

0101100
+67 0 -65 0 +64 0 +127 0 *
Fa
0  1e-07 4 0

0101000
+63 0 *
Ve
1.00000028823607e-07
100 0 60
0 0

0101101
*
Ve
1.00000005510911e-07
-100 1.22464679914735e-14 60
0 0

0101101
*
Ed
 1e-07 1 1 0
1  21 0 0 3.14159265358979
2  35 18 0 0 3.14159265358979
2  36 17 0 0 3.14159265358979
2  37 4 0 0 3.14159265358979
0

0101000
+61 0 -60 0 *
Ed
 1.00000028823607e-07 1 1 0
1  22 0 0 70
2  38 17 0 0 70
2  39 19 0 0 70
2  40 4 0 0 70
0

0101000
+68 0 -61 0 *
Ed
 1.00000005153722e-07 1 1 0
1  23 0 0 70
2  41 17 0 0 70
2  42 20 0 0 70
2  43 4 0 0 70
0

0101000
+66 0 -60 0 *
Wi

0101100
+65 0 -59 0 -58 0 +57 0 *
Fa
0  1e-07 17 0

0101000
+56 0 *
Ed
 1e-07 1 1 0
1  19 0 90 290
2  30 4 0 90 290
2  31 15 0 90 290
0

0101000
+60 0 -61 0 *
Wi

0101100
+54 0 +59 0 *
Fa
0  1e-07 4 0

0101000
+53 0 *
Ed
 1.00000028421709e-07 1 1 0
1  24 0 0 380
2  44 15 0 0 380
0

0101000
+139 0 -137 0 *
Wi

0101100
-136 0 +51 0 *
Fa
0  1e-07 21 0

0101000
+50 0 *
Wi

0101100
+129 0 -64 0 -57 0 -54 0 +58 0 -67 0 -126 0 -51 0 *
Fa
0  1e-07 15 0

0101000
+48 0 *
Sh

0101100
+124 0 +62 0 +55 0 +52 0 +49 0 +47 0 *
So

0100000
+46 0 *
Ed
 1e-07 1 1 0
1  25 0 0 380
0

0101000
+140 0 -135 0 *
Wi

0101100
-133 0 +44 0 *
Fa
0  1e-07 22 0

0101000
+43 0 *
Wi

0101100
+138 0 +51 0 -134 0 -44 0 *
Fa
0  1e-07 23 0

0101000
+41 0 *
Sh

0101100
+131 0 -49 0 +42 0 +40 0 *
So

0100000
+39 0 *
Ve
1.00000028664768e-07
-170 2.0818995585505e-14 560
0 0

0101101
*
Ed
 1e-07 1 1 0
1  26 0 360 380
0

0101000
+37 0 -121 0 *
Ve
1.00000005153722e-07
170 0 560
0 0

0101101
*
Ed
 1e-07 1 1 0
1  27 0 0 3.14159265358979
2  45 16 0 0 3.14159265358979
0

0101000
+35 0 -37 0 *
Ed
 1e-07 1 1 0
1  26 0 0 20
0

0101000
+123 0 -35 0 *
Wi

0101100
-120 0 +36 0 +34 0 +33 0 *
Fa
0  1e-07 24 0

0101000
+32 0 *
Ve
1.00000005510911e-07
100 0 560
0 0

0101101
*
Ve
1.00000028664768e-07
-100 1.22464679914735e-14 560
0 0

0101101
*
Ed
 1e-07 1 1 0
1  28 0 0 3.14159265358979
2  46 18 0 0 3.14159265358979
0

0101000
+30 0 -29 0 *
Ed
 1.00000005153722e-07 1 1 0
1  29 0 0 70
2  47 19 0 0 70
0

0101000
+30 0 -35 0 *
Ed
 1.00000028664768e-07 1 1 0
1  30 0 0 70
2  48 20 0 0 70
0

0101000
+29 0 -37 0 *
Wi

0101100
+28 0 -34 0 -27 0 +26 0 *
Fa
0  1e-07 25 0

0101000
+25 0 *
Ed
 1e-07 1 1 0
1  26 0 90 290
0

0101000
+30 0 -29 0 *
Wi

0101100
-28 0 +23 0 *
Fa
0  1e-07 24 0

0101000
+22 0 *
Wi

0101100
+115 0 +75 0 -112 0 -33 0 +27 0 -23 0 -26 0 -36 0 *
Fa
0  1e-07 26 0

0101000
+20 0 *
Sh

0101100
+110 0 -73 0 +31 0 +24 0 +21 0 +19 0 *
So

0100000
+18 0 *
Ed
 1e-07 1 1 0
1  31 0 0 500
2  49 16 0 0 500
2  50 19 0 0 500
0

0101000
+35 0 -68 0 *
Ed
 1e-07 1 1 0
1  32 0 0 500
2  51 16 0 0 500
2  52 20 0 0 500
0

0101000
+37 0 -66 0 *
Wi

0101100
+34 0 -65 0 -16 0 +15 0 *
Fa
0  1e-07 16 0

0101000
+14 0 *
Ed
 1e-07 1 1 0
1  33 0 0 500
2  53 18 0 0 500
2  54 19 0 0 500
0

0101000
+61 0 -30 0 *
Ed
 1e-07 1 1 0
1  34 0 0 500
2  55 18 0 0 500
2  56 20 0 0 500
0

0101000
+60 0 -29 0 *
Wi

0101100
+59 0 -28 0 -12 0 +11 0 *
Fa
0  1e-07 18 0

0101000
+10 0 *
Wi

0101100
+27 0 +16 0 +58 0 +12 0 *
Fa
0  1e-07 19 0

0101000
+8 0 *
Wi

0101100
+26 0 +15 0 +57 0 +11 0 *
Fa
0  1e-07 20 0

0101000
+6 0 *
Sh

0101100
+24 0 +13 0 +55 0 +9 0 +7 0 -5 0 *
So

0100000
-4 0 *
Co

0100000
+3 0 *
Co

1100000
+79 0 +69 0 +45 0 +38 0 +17 0 +2 0 *

+1 0 