DBRep_DrawableShape

CASCADE Topology V1, (c) Matra-Datavision
Locations 0
Curve2ds 0
Curves 24
8 0 5
1 0 2.5 0 0 -1 0 
1 0 2.5 0 0 0 1 
8 0 5
1 0 -2.5 10 0 1 0 
1 0 -2.5 0 0 0 1 
8 0 5
1 10 2.5 0 0 -1 0 
1 10 2.5 0 -1 0 0 
1 10 -2.5 0 -1 0 0 
1 0 2.5 10 1 0 0 
8 0 5
1 10 -2.5 10 0 1 0 
1 0 -2.5 10 1 0 0 
1 10 2.5 10 0 0 -1 
1 10 -2.5 10 0 0 -1 
1 -1 2.5 0 0 0 1 
8 0 5
1 -1 2.5 10 0 -1 0 
1 -1 -2.5 0 0 0 1 
8 0 5
1 -1 -2.5 0 0 1 0 
1 -10 2.5 0 1 0 0 
1 -10 -2.5 0 1 0 0 
8 0 5
1 -10 -2.5 0 0 1 0 
1 -1 2.5 10 -1 0 0 
8 0 5
1 -10 2.5 10 0 -1 0 
1 -1 -2.5 10 -1 0 0 
1 -10 2.5 10 0 0 -1 
1 -10 -2.5 10 0 0 -1 
Polygon3D 0
PolygonOnTriangulations 0
Surfaces 12
1 0 0 0 1 0 0 0 0 1 0 -1 0 
1 10 0 0 0 0 1 -1 0 0 0 -1 0 
1 0 0 10 0 0 -1 1 0 0 0 -1 0 
1 5 2.5 5 0 1 0 0 0 1 1 0 0 
1 10 0 10 -1 -0 -0 0 0 -1 0 -1 0 
1 5 -2.5 5 0 1 0 0 0 1 1 0 0 
1 -1 0 0 1 0 0 0 0 1 0 -1 0 
1 -10 0 0 0 0 -1 1 0 0 0 -1 0 
1 -1 0 10 0 0 1 -1 0 0 0 -1 0 
1 -5.5 2.5 5 -0 -1 -0 0 0 -1 1 0 0 
1 -10 0 10 -1 -0 -0 0 0 -1 0 -1 0 
1 -5.5 -2.5 5 -0 -1 -0 0 0 -1 1 0 0 
Triangulations 0

TShapes 69
Ve
1e-07
0 2.5 0
0 0

0101101
*
Ve
1e-07
0 -2.5 0
0 0

0101101
*
Ed
 1e-07 1 1 0
1  1 0 0 5
0

0101000
+69 0 -68 0 *
Ve
1e-07
0 2.5 10
0 0

0101101
*
Ed
 1e-07 1 1 0
1  2 0 0 10
0

0101000
+69 0 -66 0 *
Ve
1e-07
0 -2.5 10
0 0

0101101
*
Ed
 1e-07 1 1 0
1  3 0 0 5
0

0101000
+64 0 -66 0 *
Ed
 1e-07 1 1 0
1  4 0 0 10
0

0101000
+68 0 -64 0 *
Wi

0101100
-67 0 +65 0 -63 0 -62 0 *
Fa
0  1e-07 1 0

0111000
+61 0 *
Ve
1e-07
10 2.5 0
0 0

0101101
*
Ve
1e-07
10 -2.5 0
0 0

0101101
*
Ed
 1e-07 1 1 0
1  5 0 0 5
0

0101000
+59 0 -58 0 *
Ed
 1e-07 1 1 0
1  6 0 0 10
0

0101000
+59 0 -69 0 *
Ed
 1e-07 1 1 0
1  7 0 0 10
0

0101000
+58 0 -68 0 *
Wi

0101100
-57 0 +56 0 +67 0 -55 0 *
Fa
0  1e-07 2 0

0111000
+54 0 *
Ve
1e-07
10 2.5 10
0 0

0101101
*
Ed
 1e-07 1 1 0
1  8 0 0 10
0

0101000
+66 0 -52 0 *
Ve
1e-07
10 -2.5 10
0 0

0101101
*
Ed
 1e-07 1 1 0
1  9 0 0 5
0

0101000
+50 0 -52 0 *
Ed
 1e-07 1 1 0
1  10 0 0 10
0

0101000
+64 0 -50 0 *
Wi

0101100
+51 0 -49 0 -48 0 +63 0 *
Fa
0  1e-07 3 0

0111000
+47 0 *
Ed
 1e-07 1 1 0
1  11 0 0 10
0

0101000
+52 0 -59 0 *
Wi

0101100
+65 0 +51 0 +45 0 +56 0 *
Fa
0  1e-07 4 0

0101000
+44 0 *
Ed
 1e-07 1 1 0
1  12 0 0 10
0

0101000
+50 0 -58 0 *
Wi

0101100
+45 0 +57 0 -42 0 +49 0 *
Fa
0  1e-07 5 0

0111000
+41 0 *
Wi

0101100
+62 0 +48 0 +42 0 +55 0 *
Fa
0  1e-07 6 0

0101000
+39 0 *
Sh

0101100
-60 0 -53 0 -46 0 +43 0 -40 0 -38 0 *
So

0100000
+37 0 *
Ve
1e-07
-1 2.5 0
0 0

0101101
*
Ve
1e-07
-1 2.5 10
0 0

0101101
*
Ed
 1e-07 1 1 0
1  13 0 0 10
0

0101000
+35 0 -34 0 *
Ve
1e-07
-1 -2.5 10
0 0

0101101
*
Ed
 1e-07 1 1 0
1  14 0 0 5
0

0101000
+34 0 -32 0 *
Ve
1e-07
-1 -2.5 0
0 0

0101101
*
Ed
 1e-07 1 1 0
1  15 0 0 10
0

0101000
+30 0 -32 0 *
Ed
 1e-07 1 1 0
1  16 0 0 5
0

0101000
+30 0 -35 0 *
Wi

0101100
+33 0 +31 0 -29 0 +28 0 *
Fa
0  1e-07 7 0

0111000
+27 0 *
Ve
1e-07
-10 2.5 0
0 0

0101101
*
Ed
 1e-07 1 1 0
1  17 0 0 9
0

0101000
+25 0 -35 0 *
Ve
1e-07
-10 -2.5 0
0 0

0101101
*
Ed
 1e-07 1 1 0
1  18 0 0 9
0

0101000
+23 0 -30 0 *
Ed
 1e-07 1 1 0
1  19 0 0 5
0

0101000
+23 0 -25 0 *
Wi

0101100
+24 0 -28 0 -22 0 +21 0 *
Fa
0  1e-07 8 0

0111000
+20 0 *
Ve
1e-07
-10 2.5 10
0 0

0101101
*
Ed
 1e-07 1 1 0
1  20 0 0 9
0

0101000
+34 0 -18 0 *
Ve
1e-07
-10 -2.5 10
0 0

0101101
*
Ed
 1e-07 1 1 0
1  21 0 0 5
0

0101000
+18 0 -16 0 *
Ed
 1e-07 1 1 0
1  22 0 0 9
0

0101000
+32 0 -16 0 *
Wi

0101100
-31 0 +17 0 +15 0 -14 0 *
Fa
0  1e-07 9 0

0111000
+13 0 *
Ed
 1e-07 1 1 0
1  23 0 0 10
0

0101000
+18 0 -25 0 *
Wi

0101100
+33 0 +17 0 +11 0 +24 0 *
Fa
0  1e-07 10 0

0101000
+10 0 *
Ed
 1e-07 1 1 0
1  24 0 0 10
0

0101000
+16 0 -23 0 *
Wi

0101100
-15 0 +11 0 -21 0 -8 0 *
Fa
0  1e-07 11 0

0111000
+7 0 *
Wi

0101100
+29 0 +14 0 +8 0 +22 0 *
Fa
0  1e-07 12 0

0101000
+5 0 *
Sh

0101100
+26 0 +19 0 +12 0 -9 0 +6 0 +4 0 *
So

0100000
+3 0 *
Co

1100000
+36 0 +2 0 *

+1 0 