DBRep_DrawableShape

CASCADE Topology V1, (c) Matra-Datavision
Locations 0
Curve2ds 0
Curves 24
8 0 1
1 0 0.5 0 0 -1 0 
1 0 0.5 0 0 0 1 
8 0 1
1 0 -0.5 1 0 1 0 
1 0 -0.5 0 0 0 1 
8 0 1
1 1 0.5 0 0 -1 0 
1 1 0.5 0 -1 0 0 
1 1 -0.5 0 -1 0 0 
1 0 0.5 1 1 0 0 
8 0 1
1 1 -0.5 1 0 1 0 
1 0 -0.5 1 1 0 0 
1 1 0.5 1 0 0 -1 
1 1 -0.5 1 0 0 -1 
8 0 5
1 0 -2.5 0 0 1 0 
1 0 -2.5 0 0 0 1 
8 0 5
1 0 2.5 10 0 -1 0 
1 0 2.5 0 0 0 1 
1 -10 2.5 0 1 0 0 
1 -10 -2.5 0 1 0 0 
8 0 5
1 -10 -2.5 0 0 1 0 
1 0 2.5 10 -1 0 0 
8 0 5
1 -10 2.5 10 0 -1 0 
1 0 -2.5 10 -1 0 0 
1 -10 2.5 10 0 0 -1 
1 -10 -2.5 10 0 0 -1 
Polygon3D 0
PolygonOnTriangulations 0
Surfaces 12
1 0 0 0 1 0 0 0 0 1 0 -1 0 
1 1 0 0 0 0 1 -1 0 0 0 -1 0 
1 0 0 1 0 0 -1 1 0 0 0 -1 0 
1 0.5 0.5 0.5 0 1 0 0 0 1 1 0 0 
1 1 0 1 -1 -0 -0 0 0 -1 0 -1 0 
1 0.5 -0.5 0.5 0 1 0 0 0 1 1 0 0 
1 0 0 0 1 0 0 0 0 1 0 -1 0 
1 -10 0 0 0 0 -1 1 0 0 0 -1 0 
1 0 0 10 0 0 1 -1 0 0 0 -1 0 
1 -5 2.5 5 -0 -1 -0 0 0 -1 1 0 0 
1 -10 0 10 -1 -0 -0 0 0 -1 0 -1 0 
1 -5 -2.5 5 -0 -1 -0 0 0 -1 1 0 0 
Triangulations 0

TShapes 70
Ve
1.00000000222045e-07
0 0.5 0
0 0

0101101
*
Ve
1.00000000222045e-07
0 -0.5 0
0 0

0101101
*
Ed
 1.00000000222045e-07 1 1 0
1  1 0 0 1
0

0101000
+70 0 -69 0 *
Ve
1e-07
0 0.5 1
0 0

0101101
*
Ed
 1e-07 1 1 0
1  2 0 0 1
0

0101000
+70 0 -67 0 *
Ve
1e-07
0 -0.5 1
0 0

0101101
*
Ed
 1e-07 1 1 0
1  3 0 0 1
0

0101000
+65 0 -67 0 *
Ed
 1e-07 1 1 0
1  4 0 0 1
0

0101000
+69 0 -65 0 *
Wi

0101100
-68 0 +66 0 -64 0 -63 0 *
Fa
0  1e-07 1 0

0101000
+62 0 *
Ve
1e-07
1 0.5 0
0 0

0101101
*
Ve
1e-07
1 -0.5 0
0 0

0101101
*
Ed
 1e-07 1 1 0
1  5 0 0 1
0

0101000
+60 0 -59 0 *
Ed
 1e-07 1 1 0
1  6 0 0 1
0

0101000
+60 0 -70 0 *
Ed
 1e-07 1 1 0
1  7 0 0 1
0

0101000
+59 0 -69 0 *
Wi

0101100
-58 0 +57 0 +68 0 -56 0 *
Fa
0  1e-07 2 0

0101000
+55 0 *
Ve
1e-07
1 0.5 1
0 0

0101101
*
Ed
 1e-07 1 1 0
1  8 0 0 1
0

0101000
+67 0 -53 0 *
Ve
1e-07
1 -0.5 1
0 0

0101101
*
Ed
 1e-07 1 1 0
1  9 0 0 1
0

0101000
+51 0 -53 0 *
Ed
 1e-07 1 1 0
1  10 0 0 1
0

0101000
+65 0 -51 0 *
Wi

0101100
+52 0 -50 0 -49 0 +64 0 *
Fa
0  1e-07 3 0

0101000
+48 0 *
Ed
 1e-07 1 1 0
1  11 0 0 1
0

0101000
+53 0 -60 0 *
Wi

0101100
+66 0 +52 0 +46 0 +57 0 *
Fa
0  1e-07 4 0

0101000
+45 0 *
Ed
 1e-07 1 1 0
1  12 0 0 1
0

0101000
+51 0 -59 0 *
Wi

0101100
+46 0 +58 0 -43 0 +50 0 *
Fa
0  1e-07 5 0

0111000
+42 0 *
Wi

0101100
+63 0 +49 0 +43 0 +56 0 *
Fa
0  1e-07 6 0

0101000
+40 0 *
Sh

0101100
-61 0 -54 0 -47 0 +44 0 -41 0 -39 0 *
So

0100000
+38 0 *
Ve
1e-07
0 2.5 0
0 0

0101101
*
Ed
 1e-07 1 1 0
1  13 0 3 5
0

0101000
+70 0 -36 0 *
Ve
1e-07
0 -2.5 0
0 0

0101101
*
Ed
 1e-07 1 1 0
1  13 0 0 2
0

0101000
+34 0 -69 0 *
Ve
1e-07
0 -2.5 10
0 0

0101101
*
Ed
 1e-07 1 1 0
1  14 0 0 10
0

0101000
+34 0 -32 0 *
Ve
1e-07
0 2.5 10
0 0

0101101
*
Ed
 1e-07 1 1 0
1  15 0 0 5
0

0101000
+30 0 -32 0 *
Ed
 1e-07 1 1 0
1  16 0 0 10
0

0101000
+36 0 -30 0 *
Wi

0101100
+35 0 -66 0 +64 0 +63 0 +33 0 -31 0 +29 0 +28 0 *
Fa
0  1e-07 7 0

0101000
+27 0 *
Ve
1e-07
-10 2.5 0
0 0

0101101
*
Ed
 1e-07 1 1 0
1  17 0 0 10
0

0101000
+25 0 -36 0 *
Ve
1e-07
-10 -2.5 0
0 0

0101101
*
Ed
 1e-07 1 1 0
1  18 0 0 10
0

0101000
+23 0 -34 0 *
Ed
 1e-07 1 1 0
1  19 0 0 5
0

0101000
+23 0 -25 0 *
Wi

0101100
+24 0 -33 0 +68 0 -35 0 -22 0 +21 0 *
Fa
0  1e-07 8 0

0101000
+20 0 *
Ve
1e-07
-10 2.5 10
0 0

0101101
*
Ed
 1e-07 1 1 0
1  20 0 0 10
0

0101000
+30 0 -18 0 *
Ve
1e-07
-10 -2.5 10
0 0

0101101
*
Ed
 1e-07 1 1 0
1  21 0 0 5
0

0101000
+18 0 -16 0 *
Ed
 1e-07 1 1 0
1  22 0 0 10
0

0101000
+32 0 -16 0 *
Wi

0101100
-29 0 +17 0 +15 0 -14 0 *
Fa
0  1e-07 9 0

0111000
+13 0 *
Ed
 1e-07 1 1 0
1  23 0 0 10
0

0101000
+18 0 -25 0 *
Wi

0101100
+28 0 +17 0 +11 0 +24 0 *
Fa
0  1e-07 10 0

0101000
+10 0 *
Ed
 1e-07 1 1 0
1  24 0 0 10
0

0101000
+16 0 -23 0 *
Wi

0101100
-15 0 +11 0 -21 0 -8 0 *
Fa
0  1e-07 11 0

0111000
+7 0 *
Wi

0101100
+31 0 +14 0 +8 0 +22 0 *
Fa
0  1e-07 12 0

0101000
+5 0 *
Sh

0101100
+26 0 +61 0 +19 0 +12 0 -9 0 +6 0 +4 0 *
So

0100000
+3 0 *
Co

1100000
+37 0 +2 0 *

+1 0 